<svg 
xmlns="http://www.w3.org/2000/svg" 
xmlns:xlink="http://www.w3.org/1999/xlink" 
version="1.1" 
x="0px" 
y="0px" 
viewBox="0 0 50 62.5" 
enable-background="new 0 0 50 50" 
xml:space="preserve">

<g>
<path fill-rule="evenodd" 
clip-rule="evenodd" 
d="M42.318,8.203H7.682v8.523h34.636V8.203z M14.814,22.408v-2.841H7.682v2.841   H14.814z M16.85,19.567v2.841h7.132v-2.841H16.85z M26.018,19.567v2.841h7.132v-2.841H26.018z M35.186,19.567v2.841h7.132v-2.841   H35.186z M40.56,27.591h-6.207v2.841h6.207V27.591z M32.256,30.431v-2.841h-6.207v2.841H32.256z M23.952,30.431v-2.841h-6.207   v2.841H23.952z M15.648,30.431v-2.841H9.441v2.841H15.648z M15.648,33.274H9.441v2.841h6.207V33.274z M17.745,33.274v2.841h6.207   v-2.841H17.745z M26.049,33.274v2.841h6.207v-2.841H26.049z M34.353,33.274v2.841h6.207v-2.841H34.353z M40.56,38.956h-6.207v2.841   h6.207V38.956z M32.256,41.797v-2.841h-6.207v2.841H32.256z M23.952,41.797v-2.841h-6.207v2.841H23.952z M15.648,41.797v-2.841   H9.441v2.841H15.648z M50,49.479V3.894c-8.355-2.163-16.351-3.372-25-3.372c-8.65,0-16.645,1.21-25,3.372v45.585H50z M2.841,46.637   V6.089C10.217,4.271,17.604,3.362,25,3.362c7.396,0,14.784,0.909,22.159,2.727v40.548H2.841z M39.477,13.885H10.523v-2.841h28.954   V13.885z"/>
</g>
</svg>