<?xml version="1.0" encoding="UTF-8"?>
<svg width="160px" height="74px" viewBox="0 0 160 74" version="1.1" xmlns="http://www.w3.org/2000/svg" xmlns:xlink="http://www.w3.org/1999/xlink">
    <!-- Generator: Sketch 53.2 (72643) - https://sketchapp.com -->
    <title>Logo solo on light</title>
    <desc>Created with Sketch.</desc>
    <g id="Page-1" stroke="none" stroke-width="1" fill="none" fill-rule="evenodd">
        <g id="Desktop-start" transform="translate(-85.000000, -66.000000)">
            <g id="Logo-solo-on-light" transform="translate(85.000000, 66.000000)">
                <g id="Group-76">
                    <polygon id="Fill-1" fill="#1D1D1B" points="0 74 160 74 160 0 0 0"></polygon>
                    <path d="M21.2117685,42.6304348 L25.9882315,42.6304348 L33.6,61.1304348 L28.2885216,61.1304348 L26.9845941,57.8503131 L20.0874073,57.8503131 L18.8120263,61.1304348 L13.6,61.1304348 L21.2117685,42.6304348 Z M25.553589,53.8871086 L23.5627055,48.6655938 L21.5423546,53.8871086 L25.553589,53.8871086 Z" id="Fill-2" fill="#FF1C1C"></path>
                    <polygon id="Fill-3" fill="#FF1C1C" points="36.8 42.6304348 41.750389 42.6304348 41.750389 56.6376457 50.4 56.6376457 50.4 61.1304348 36.8 61.1304348"></polygon>
                    <path d="M60.4124695,42.6304348 L65.1893724,42.6304348 L72.8,61.1304348 L67.4898743,61.1304348 L66.1858268,57.8503131 L59.2861629,57.8503131 L58.0125063,61.1304348 L52.8,61.1304348 L60.4124695,42.6304348 Z M64.752848,53.8871086 L62.7617811,48.6655938 L60.7430861,53.8871086 L64.752848,53.8871086 Z" id="Fill-4" fill="#FF1C1C"></path>
                    <g id="Group-75" transform="translate(12.000000, 12.065217)">
                        <path d="M64.1575639,30.0917419 L72.7746861,30.0917419 C75.5613083,30.0917419 77.490725,30.8330679 78.7140972,32.1029583 C79.7825528,33.1629494 80.3280472,34.5921725 80.3280472,36.4173418 L80.3280472,36.4707707 C80.3280472,39.3015482 78.8455417,41.1801464 76.578125,42.1590401 L80.9251806,48.6163041 L75.0937417,48.6163041 L71.4208083,43.0062698 L71.3701083,43.0062698 L69.2078472,43.0062698 L69.2078472,48.6163041 L64.1575639,48.6163041 L64.1575639,30.0917419 Z M72.5418417,38.9838371 C74.2600083,38.9838371 75.2495972,38.1375615 75.2495972,36.7894359 L75.2495972,36.7350529 C75.2495972,35.2791154 74.2083694,34.5377895 72.5155528,34.5377895 L69.2078472,34.5377895 L69.2078472,38.9838371 L72.5418417,38.9838371 Z" id="Fill-5" fill="#FF1C1C"></path>
                        <polygon id="Fill-7" fill="#FF1D1D" points="84.3913706 30.0917419 89.7308317 30.0917419 94.0788261 37.2645714 98.4286983 30.0917419 103.767221 30.0917419 103.767221 48.6163041 98.7404094 48.6163041 98.7404094 37.979183 94.0788261 45.2283395 93.9746094 45.2283395 89.3402539 38.0297496 89.3402539 48.6163041 84.3913706 48.6163041"></polygon>
                        <path d="M112.759804,35.2879885 C110.577827,35.2879885 108.80051,37.0931219 108.80051,39.3104212 C108.80051,41.5277205 110.577827,43.333808 112.759804,43.333808 C114.941782,43.333808 116.719099,41.5277205 116.719099,39.3104212 C116.719099,37.0931219 114.941782,35.2879885 112.759804,35.2879885" id="Fill-9" fill="#FF1C1C"></path>
                        <path d="M132.525951,39.3103258 C132.525951,42.7431325 131.664989,46.087209 130.032262,49.0620537 L132.291228,49.7280068 C133.951184,46.5241811 134.830923,42.9644808 134.830923,39.3103258 C134.830923,35.6456758 133.948367,32.0955164 132.286534,28.895507 L130.024751,29.5614601 C131.659356,32.5343966 132.525951,35.8670241 132.525951,39.3103258" id="Fill-11" fill="#FF1C1C"></path>
                        <path d="M124.064966,47.3035751 L126.372754,47.9838395 C127.969804,45.3954002 128.845788,42.392887 128.845788,39.3102304 C128.845788,36.2199411 127.977316,33.2221983 126.378388,30.6356672 L124.055577,31.3197479 C125.659199,33.6572622 126.540816,36.4355649 126.540816,39.3102304 C126.540816,42.1782173 125.66671,44.967969 124.064966,47.3035751" id="Fill-13" fill="#FF1C1C"></path>
                        <path d="M122.861967,39.3103258 C122.861967,36.7304733 121.914628,34.3023207 120.257489,32.439942 L117.699956,33.192717 C119.500745,34.6934966 120.556995,36.9174744 120.556995,39.3103258 C120.556995,41.7213048 119.481028,43.93765 117.689628,45.4260264 L120.243406,46.1778473 C121.894912,44.3240554 122.861967,41.9063978 122.861967,39.3103258" id="Fill-15" fill="#FF1C1C"></path>
                        <path d="M0.381001111,19.5232197 L3.76945111,15.4101486 C5.93171222,17.1637614 8.34841222,18.0892262 10.8899844,18.0892262 C12.5236511,18.0892262 13.4005733,17.5158197 13.4005733,16.559824 L13.4005733,16.4949461 C13.4005733,15.5694812 12.6813844,15.0599985 9.69853444,14.3587442 C5.02380667,13.2739468 1.41659556,11.9363162 1.41659556,7.34524731 L1.41659556,7.28132345 C1.41659556,3.13676752 4.64637333,0.140932888 9.91635667,0.140932888 C13.6521956,0.140932888 16.5693233,1.15894421 18.9531622,3.10432854 L15.9111622,7.47214095 C13.9028789,6.0371934 11.7068178,5.27201526 9.76050111,5.27201526 C8.28644556,5.27201526 7.56537889,5.90934568 7.56537889,6.7069628 L7.56537889,6.77088666 C7.56537889,7.79080616 8.31742889,8.23827318 11.3613067,8.93857338 C16.41159,10.0548557 19.5493567,11.7121056 19.5493567,15.8881464 L19.5493567,15.9539785 C19.5493567,20.5126084 16.00599,23.2212627 10.6702844,23.2212627 C6.78046778,23.2212627 3.07842889,21.9780867 0.381001111,19.5232197" id="Fill-17" fill="#FFFFFF"></path>
                        <polygon id="Fill-19" fill="#FFFFFF" points="23.0445583 0.521613785 40.7069361 0.521613785 40.7069361 5.78340614 29.0684694 5.78340614 29.0684694 9.16278393 39.6103139 9.16278393 39.6103139 14.040079 29.0684694 14.040079 29.0684694 17.5787894 40.8646694 17.5787894 40.8646694 22.8396277 23.0445583 22.8405818"></polygon>
                        <path d="M43.5204106,11.7451171 L43.5204106,11.6811932 C43.5204106,5.17622488 48.4458217,0.0766273928 55.0969106,0.0766273928 C59.5838606,0.0766273928 62.4718828,1.98861867 64.4163217,4.72971195 L59.833605,8.33330029 C58.5792494,6.73997423 57.138055,5.71910064 55.0349439,5.71910064 C51.9610217,5.71910064 49.7968828,8.36573926 49.7968828,11.6163152 L49.7968828,11.6811932 C49.7968828,15.0271779 51.9610217,17.6423317 55.0349439,17.6423317 C57.3248939,17.6423317 58.675955,16.5594424 59.9932161,14.9327233 L64.5721772,18.2481772 C62.5019272,21.1495572 59.7106106,23.2867131 54.8471661,23.2867131 C48.5725717,23.2867131 43.5204106,18.4075098 43.5204106,11.7451171" id="Fill-21" fill="#FFFFFF"></path>
                        <polygon id="Fill-23" fill="#FFFFFF" points="73.1008561 5.94235711 66.5117339 5.94235711 66.5117339 0.52123215 85.7739783 0.52123215 85.7739783 5.94235711 79.1848561 5.94235711 79.1848561 22.8392461 73.1008561 22.8392461"></polygon>
                        <path d="M87.3473683,11.7451171 L87.3473683,11.6811932 C87.3473683,5.27258771 92.428635,0.0766273928 99.2083517,0.0766273928 C105.985252,0.0766273928 111.004552,5.20770976 111.004552,11.6163152 L111.004552,11.6811932 C111.004552,18.0888446 105.921407,23.2867131 99.1454461,23.2867131 C92.3666683,23.2867131 87.3473683,18.1527684 87.3473683,11.7451171 M104.790046,11.7451171 L104.790046,11.6811932 C104.790046,8.46114801 102.502913,5.65517678 99.1454461,5.65517678 C95.8189628,5.65517678 93.5909794,8.39627006 93.5909794,11.6163152 L93.5909794,11.6811932 C93.5909794,14.9012384 95.8809294,17.7072096 99.2083517,17.7072096 C102.563941,17.7072096 104.790046,14.9651622 104.790046,11.7451171" id="Fill-25" fill="#FFFFFF"></path>
                        <path d="M114.542191,0.521613785 L124.925363,0.521613785 C128.28283,0.521613785 130.603763,1.41559374 132.080636,2.94499594 C133.365974,4.22061088 134.026013,5.94369283 134.026013,8.14095626 L134.026013,8.2058342 C134.026013,11.617651 132.236491,13.8807464 129.507141,15.0599985 L134.74708,22.8396277 L127.718558,22.8396277 L123.294513,16.0808721 L123.232547,16.0808721 L120.628069,16.0808721 L120.628069,22.8396277 L114.542191,22.8396277 L114.542191,0.521613785 Z M124.644636,11.2341078 C126.714886,11.2341078 127.906336,10.2141883 127.906336,8.58746919 L127.906336,8.5254535 C127.906336,6.77088666 126.65198,5.87881488 124.611774,5.87881488 L120.628069,5.87881488 L120.628069,11.2341078 L124.644636,11.2341078 Z" id="Fill-27" fill="#FFFFFF"></path>
                    </g>
                </g>
            </g>
        </g>
    </g>
</svg>